<?xml version="1.0" encoding="UTF-8"?>
<svg version="1.1" xmlns="http://www.w3.org/2000/svg" width="500" height="500">
<path d="M0 0 C165 0 330 0 500 0 C500 165 500 330 500 500 C335 500 170 500 0 500 C0 335 0 170 0 0 Z " fill="#FEFEFE" transform="translate(0,0)"/>
<path d="M0 0 C5.00442864 3.9795837 9.61567528 8.23474531 14.015625 12.8828125 C16.64198805 15.52144827 18.68012316 15.83758503 22.3125 16.0625 C27.70696113 16.0081673 30.09811309 14.25581711 33.8515625 10.546875 C34.97555918 9.332002 36.09618925 8.11398974 37.2109375 6.890625 C55.13918975 -12.22070989 84.91453882 -23.89762937 110.625 -24.72265625 C123.24194736 -24.95224841 135.51470854 -25.07693029 147.6875 -21.4375 C148.37247559 -21.24414062 149.05745117 -21.05078125 149.76318359 -20.8515625 C176.83711558 -13.12467066 199.75693517 3.08859442 216.6875 25.5625 C217.28949219 26.33722656 217.89148438 27.11195312 218.51171875 27.91015625 C225.87305917 37.81901673 231.0631074 49.05381428 235.0625 60.6875 C235.30105713 61.36619141 235.53961426 62.04488281 235.78540039 62.74414062 C239.59351512 74.44786583 240.07917452 86.72492875 240.0625 98.9375 C240.06168427 99.95531052 240.06168427 99.95531052 240.06085205 100.99368286 C240.02239099 111.45370746 239.26065614 120.68638519 235.6875 130.5625 C235.24623118 131.88763357 234.80616983 133.21316972 234.3671875 134.5390625 C228.02977725 153.03386339 218.07707513 167.77302811 204.90234375 182.10546875 C200.98933813 186.44635153 197.35911132 191.01760613 193.6875 195.5625 C192.18877558 197.39687625 190.68877702 199.23021225 189.1875 201.0625 C186.9575196 203.78631689 184.72914013 206.51130801 182.5078125 209.2421875 C177.98965897 214.78938668 173.40629593 220.27443861 168.77392578 225.72607422 C165.12913292 230.02222273 161.55977136 234.3760055 158.00390625 238.74609375 C155.40962734 241.90035192 152.77143735 245.0145298 150.125 248.125 C146.92010809 251.89338939 143.76062306 255.68496028 140.6875 259.5625 C135.83173575 265.6841254 130.75197798 271.61393994 125.6875 277.5625 C123.81085682 279.76944271 121.93583084 281.97774496 120.0625 284.1875 C119.60311035 284.72938965 119.1437207 285.2712793 118.67041016 285.82958984 C115.82765194 289.19124011 113.02648203 292.58317616 110.25 296 C105.35177761 302.01383177 100.29836754 307.88883404 95.23583984 313.76416016 C93.21394415 316.11251772 91.19731114 318.4653554 89.18139648 320.81884766 C88.18280072 321.98439284 87.18361112 323.1494295 86.18383789 324.31396484 C83.69822217 327.20988265 81.22027486 330.11170278 78.7578125 333.02734375 C46.24555433 371.43177363 46.24555433 371.43177363 29.6875 373.5625 C14.69762597 374.69136706 5.2392997 370.89888606 -6.3125 361.5625 C-7.04597656 360.97082031 -7.77945313 360.37914062 -8.53515625 359.76953125 C-12.56047287 356.38019915 -16.07188305 352.728732 -19.47265625 348.71875 C-21.4951773 346.34840685 -23.58663848 344.05111695 -25.6875 341.75 C-29.63621445 337.37964316 -33.3587721 332.85946921 -37.0625 328.28125 C-39.24751569 325.64102271 -41.50421391 323.0952028 -43.8125 320.5625 C-47.65686481 316.3396744 -51.27775534 311.97605427 -54.87109375 307.5390625 C-57.59780601 304.21465491 -60.38334149 300.94655633 -63.1875 297.6875 C-63.69788818 297.09396729 -64.20827637 296.50043457 -64.73413086 295.88891602 C-65.76283289 294.69268668 -66.79155998 293.49647888 -67.8203125 292.30029297 C-75.00205852 283.93647292 -82.04795001 275.46697253 -89.03930664 266.94360352 C-93.33354747 261.72046453 -97.70573765 256.57125534 -102.12255859 251.45166016 C-105.83548776 247.1408759 -109.44861592 242.7565417 -113.03515625 238.33984375 C-115.59454054 235.21853633 -118.19843791 232.1379997 -120.8125 229.0625 C-124.93357792 224.21295949 -128.98241483 219.31089036 -133 214.375 C-136.0368277 210.6815609 -139.13210955 207.03951514 -142.22875977 203.39624023 C-145.1079532 200.00295891 -147.94454237 196.57982214 -150.75 193.125 C-153.69359682 189.50211161 -156.69771703 185.94439497 -159.75708008 182.41967773 C-176.21253485 163.4330119 -188.13839715 144.33651563 -193.3125 119.5625 C-193.51746094 118.68207031 -193.72242188 117.80164063 -193.93359375 116.89453125 C-197.07177145 101.54992443 -195.94314235 85.68231792 -192.3125 70.5625 C-191.91224609 68.70238281 -191.91224609 68.70238281 -191.50390625 66.8046875 C-189.17978366 56.90908999 -185.19916609 48.42296555 -180.3125 39.5625 C-179.79429687 38.61246094 -179.27609375 37.66242188 -178.7421875 36.68359375 C-163.453227 9.99057256 -136.84497622 -11.59294093 -107.3125 -20.4375 C-105.49878906 -20.99630859 -105.49878906 -20.99630859 -103.6484375 -21.56640625 C-68.1178029 -31.46337709 -28.79215787 -22.3381442 0 0 Z " fill="#FE9DFA" transform="translate(227.3125,75.4375)"/>
<path d="M0 0 C5.00442864 3.9795837 9.61567528 8.23474531 14.015625 12.8828125 C16.64198805 15.52144827 18.68012316 15.83758503 22.3125 16.0625 C27.70696113 16.0081673 30.09811309 14.25581711 33.8515625 10.546875 C34.97555918 9.332002 36.09618925 8.11398974 37.2109375 6.890625 C55.13918975 -12.22070989 84.91453882 -23.89762937 110.625 -24.72265625 C123.24194736 -24.95224841 135.51470854 -25.07693029 147.6875 -21.4375 C148.37247559 -21.24414062 149.05745117 -21.05078125 149.76318359 -20.8515625 C176.83711558 -13.12467066 199.75693517 3.08859442 216.6875 25.5625 C217.28949219 26.33722656 217.89148438 27.11195312 218.51171875 27.91015625 C225.87305917 37.81901673 231.0631074 49.05381428 235.0625 60.6875 C235.30105713 61.36619141 235.53961426 62.04488281 235.78540039 62.74414062 C239.59351512 74.44786583 240.07917452 86.72492875 240.0625 98.9375 C240.06168427 99.95531052 240.06168427 99.95531052 240.06085205 100.99368286 C240.02239099 111.45370746 239.26065614 120.68638519 235.6875 130.5625 C235.24623118 131.88763357 234.80616983 133.21316972 234.3671875 134.5390625 C228.02977725 153.03386339 218.07707513 167.77302811 204.90234375 182.10546875 C200.98933813 186.44635153 197.35911132 191.01760613 193.6875 195.5625 C192.18877558 197.39687625 190.68877702 199.23021225 189.1875 201.0625 C186.9575196 203.78631689 184.72914013 206.51130801 182.5078125 209.2421875 C177.98965897 214.78938668 173.40629593 220.27443861 168.77392578 225.72607422 C165.12913292 230.02222273 161.55977136 234.3760055 158.00390625 238.74609375 C155.40962734 241.90035192 152.77143735 245.0145298 150.125 248.125 C146.92010809 251.89338939 143.76062306 255.68496028 140.6875 259.5625 C135.83173575 265.6841254 130.75197798 271.61393994 125.6875 277.5625 C123.81085682 279.76944271 121.93583084 281.97774496 120.0625 284.1875 C119.60311035 284.72938965 119.1437207 285.2712793 118.67041016 285.82958984 C115.82765194 289.19124011 113.02648203 292.58317616 110.25 296 C105.35177761 302.01383177 100.29836754 307.88883404 95.23583984 313.76416016 C93.21394415 316.11251772 91.19731114 318.4653554 89.18139648 320.81884766 C88.18280072 321.98439284 87.18361112 323.1494295 86.18383789 324.31396484 C83.69822217 327.20988265 81.22027486 330.11170278 78.7578125 333.02734375 C46.24555433 371.43177363 46.24555433 371.43177363 29.6875 373.5625 C14.69762597 374.69136706 5.2392997 370.89888606 -6.3125 361.5625 C-7.04597656 360.97082031 -7.77945313 360.37914062 -8.53515625 359.76953125 C-12.56047287 356.38019915 -16.07188305 352.728732 -19.47265625 348.71875 C-21.4951773 346.34840685 -23.58663848 344.05111695 -25.6875 341.75 C-29.63621445 337.37964316 -33.3587721 332.85946921 -37.0625 328.28125 C-39.24751569 325.64102271 -41.50421391 323.0952028 -43.8125 320.5625 C-47.65686481 316.3396744 -51.27775534 311.97605427 -54.87109375 307.5390625 C-57.59780601 304.21465491 -60.38334149 300.94655633 -63.1875 297.6875 C-63.69788818 297.09396729 -64.20827637 296.50043457 -64.73413086 295.88891602 C-65.76283289 294.69268668 -66.79155998 293.49647888 -67.8203125 292.30029297 C-75.00205852 283.93647292 -82.04795001 275.46697253 -89.03930664 266.94360352 C-93.33354747 261.72046453 -97.70573765 256.57125534 -102.12255859 251.45166016 C-105.83548776 247.1408759 -109.44861592 242.7565417 -113.03515625 238.33984375 C-115.59454054 235.21853633 -118.19843791 232.1379997 -120.8125 229.0625 C-124.93357792 224.21295949 -128.98241483 219.31089036 -133 214.375 C-136.0368277 210.6815609 -139.13210955 207.03951514 -142.22875977 203.39624023 C-145.1079532 200.00295891 -147.94454237 196.57982214 -150.75 193.125 C-153.69359682 189.50211161 -156.69771703 185.94439497 -159.75708008 182.41967773 C-176.21253485 163.4330119 -188.13839715 144.33651563 -193.3125 119.5625 C-193.51746094 118.68207031 -193.72242188 117.80164063 -193.93359375 116.89453125 C-197.07177145 101.54992443 -195.94314235 85.68231792 -192.3125 70.5625 C-191.91224609 68.70238281 -191.91224609 68.70238281 -191.50390625 66.8046875 C-189.17978366 56.90908999 -185.19916609 48.42296555 -180.3125 39.5625 C-179.79429687 38.61246094 -179.27609375 37.66242188 -178.7421875 36.68359375 C-163.453227 9.99057256 -136.84497622 -11.59294093 -107.3125 -20.4375 C-105.49878906 -20.99630859 -105.49878906 -20.99630859 -103.6484375 -21.56640625 C-68.1178029 -31.46337709 -28.79215787 -22.3381442 0 0 Z M-147.3125 39.5625 C-163.66627774 59.46836684 -168.58594703 82.91390042 -167.1015625 108.1484375 C-164.70972277 130.95064291 -152.61303996 148.52081769 -137.58984375 165.0078125 C-134.51121933 168.46136374 -131.6093183 172.04489991 -128.69921875 175.640625 C-126.08859731 178.83660672 -123.42537393 181.98328492 -120.75 185.125 C-117.56319758 188.87090015 -114.42458349 192.64056862 -111.375 196.5 C-107.6406163 201.21389417 -103.73402741 205.76482123 -99.80712891 210.31787109 C-95.99282731 214.74765407 -92.27493553 219.24709567 -88.58984375 223.78515625 C-86.03045946 226.90646367 -83.42656209 229.9870003 -80.8125 233.0625 C-77.43966411 237.03153543 -74.10073355 241.02267021 -70.8125 245.0625 C-64.24767383 253.11986214 -57.50108116 261.02217934 -50.72387695 268.90112305 C-46.69970068 273.58011523 -42.70406279 278.27180357 -38.8125 283.0625 C-33.93815585 289.06101722 -28.90147291 294.91379226 -23.85644531 300.76855469 C-21.85150693 303.09813837 -19.8536461 305.43373117 -17.85595703 307.76953125 C-15.86449337 310.09651681 -13.86883224 312.41988495 -11.87304688 314.74316406 C-10.80252247 315.99121598 -9.73359358 317.24063771 -8.66601562 318.49121094 C4.67150601 336.02323047 4.67150601 336.02323047 23.125 346.25 C37.15276846 343.54288679 48.14580362 326.68877176 56.546875 316.171875 C58.83870465 313.37818484 61.23981812 310.72041222 63.6875 308.0625 C67.70355847 303.69480508 71.48135454 299.19400764 75.20703125 294.578125 C78.13718595 291.01579519 81.15519057 287.53784874 84.1875 284.0625 C88.70249643 278.88339986 93.11988564 273.64413384 97.4453125 268.3046875 C99.99003595 265.19249959 102.58364381 262.12520126 105.1875 259.0625 C108.54202096 255.11603876 111.85971962 251.14607765 115.125 247.125 C118.58024457 242.87857242 122.11456576 238.70961576 125.6875 234.5625 C130.78707086 228.64134944 135.76735892 222.63397208 140.6875 216.5625 C145.41969688 210.73891357 150.19175317 204.95783944 155.0625 199.25 C158.86339595 194.79165177 162.53324232 190.25321418 166.125 185.625 C172.87143273 176.94148473 180.04453317 168.63137054 187.375 160.4375 C203.62580226 141.70174496 213.92459645 119.4571078 212.98046875 94.1953125 C211.18578668 71.94125482 204.02694697 52.0302005 188.6875 35.5625 C188.21328613 35.04204102 187.73907227 34.52158203 187.25048828 33.98535156 C175.88691709 21.6012743 163.54178385 13.35812154 147.6875 7.5625 C146.60984375 7.14871094 145.5321875 6.73492187 144.421875 6.30859375 C122.35606217 -0.92073077 97.30326137 2.8931606 76.6875 12.5625 C67.74026651 17.36575166 57.96344297 24.15278427 51.625 32.171875 C46.11716768 38.9678294 37.1119907 42.22825475 28.6875 43.5625 C17.07502626 44.63625613 7.11798156 42.92473978 -2.10546875 35.5234375 C-3.85044675 33.97303227 -5.54972473 32.39942014 -7.23828125 30.7890625 C-28.86266472 10.17353119 -52.33988539 2.5651583 -81.8984375 3.22265625 C-108.46906937 4.30442205 -130.2772627 20.28912248 -147.3125 39.5625 Z " fill="#020102" transform="translate(227.3125,75.4375)"/>
<path d="M0 0 C0.88558594 -0.00773437 1.77117187 -0.01546875 2.68359375 -0.0234375 C16.7297679 0.01781411 16.7297679 0.01781411 21.22460938 3.63964844 C22.5 5.25 22.5 5.25 22.9375 8.1875 C22.39320305 11.99757868 21.51794942 12.9242865 18.5 15.25 C15.57421875 15.640625 15.57421875 15.640625 12.1875 15.5 C10.94613281 15.4690625 9.70476562 15.438125 8.42578125 15.40625 C5.83979403 15.30332514 3.25385469 15.19918877 0.66796875 15.09375 C-16.0963493 14.67938992 -29.14951561 20.96800221 -41.3125 32.375 C-48.76397515 40.19579025 -53.69687233 49.59923402 -57.7109375 59.578125 C-58.5 61.25 -58.5 61.25 -60.5 63.25 C-64.00383136 63.70702148 -65.87249097 63.62006943 -68.9375 61.8125 C-70.80792506 58.74500291 -70.94077604 56.65610278 -70.359375 53.1328125 C-66.96511915 41.74662696 -60.49038565 31.92820273 -52.5 23.25 C-51.96117188 22.61964844 -51.42234375 21.98929688 -50.8671875 21.33984375 C-38.09011773 7.24654317 -18.67645008 -0.1631131 0 0 Z " fill="#040204" transform="translate(156.5,100.75)"/>
<path d="M0 0 C3.22907044 2.07899056 6.1329485 4.44968943 9 7 C9.57492188 7.50015625 10.14984375 8.0003125 10.7421875 8.515625 C12 10 12 10 12.4375 13.4375 C12 17 12 17 10.4375 19.5 C7.79702138 21.12490992 6.14278935 21.57983819 3.078125 20.93359375 C-2.15786336 18.58133582 -7.42520131 14.16805206 -10 8.98828125 C-10.64720686 5.88033997 -10.12819406 4.19998273 -8.4375 1.5625 C-5.12457878 -0.56116745 -3.89356275 -0.80809793 0 0 Z " fill="#070407" transform="translate(198,113)"/>
</svg>
